<svg width="24" height="24" viewBox="0 0 24 24" fill="none" xmlns="http://www.w3.org/2000/svg">
<path d="M16.7502 3.56V2C16.7502 1.59 16.4102 1.25 16.0002 1.25C15.5902 1.25 15.2502 1.59 15.2502 2V3.5H8.75022V2C8.75022 1.59 8.41022 1.25 8.00022 1.25C7.59022 1.25 7.25022 1.59 7.25022 2V3.56C4.55022 3.81 3.24023 5.42 3.04023 7.81C3.02023 8.1 3.26023 8.34 3.54023 8.34H20.4602C20.7502 8.34 20.9902 8.09 20.9602 7.81C20.7602 5.42 19.4502 3.81 16.7502 3.56Z" fill="#13A5FA"/>
<path opacity="0.4" d="M20 9.84009C20.55 9.84009 21 10.2901 21 10.8401V17.0001C21 20.0001 19.5 22.0001 16 22.0001H8C4.5 22.0001 3 20.0001 3 17.0001V10.8401C3 10.2901 3.45 9.84009 4 9.84009H20Z" fill="#13A5FA"/>
</svg>
