<svg width="111" height="42" viewBox="0 0 111 42" fill="none" xmlns="http://www.w3.org/2000/svg">
<path d="M51.7254 33.479V35.8475H55.2016V37.7393H51.7254V41.9996H49.7441V31.572H56.5817V33.4786H51.7254V33.479Z" fill="black"/>
<path d="M62.317 38.4246H60.8719V41.9998H58.8906V31.5723H62.7489C65.0727 31.5723 66.3689 33.0916 66.3689 34.9986C66.3689 36.399 65.6834 37.5906 64.3876 38.1268L66.622 41.9998H64.3876L62.317 38.4246ZM60.8722 36.5328H62.7046C63.6878 36.5328 64.3133 35.892 64.3133 34.9982C64.3133 34.1044 63.6878 33.4789 62.7046 33.4789H60.8722V36.5328Z" fill="black"/>
<path d="M70.6883 31.5723V41.9998H68.707V31.5723H70.6883Z" fill="black"/>
<path d="M80.2961 40.108V41.9998H73.3691V31.5723H80.2961V33.4789H75.3504V35.8473H79.0365V37.7392H75.3504V40.1076H80.2961V40.108Z" fill="black"/>
<path d="M90.6928 31.5723V41.9998H88.7415L84.5555 35.2369V41.9998H82.5742V31.5723H84.5107L88.7115 38.3352V31.5723H90.6928Z" fill="black"/>
<path d="M102.372 36.7863C102.372 39.8402 100.361 42.0003 96.9054 42.0003H93.5537V31.5728H96.9054C100.362 31.5724 102.372 33.7325 102.372 36.7863ZM100.391 36.7863C100.391 34.8051 99.0507 33.4794 96.8607 33.4794H95.535V40.1085H96.8607C99.0507 40.1081 100.391 38.7824 100.391 36.7863Z" fill="black"/>
<path d="M56.6711 24.3333V26.2251H49.7441V15.7975H56.6711V17.7041H51.7254V20.0726H55.4115V21.9644H51.7254V24.3329H56.6711V24.3333Z" fill="black"/>
<path d="M67.0277 15.7985V26.226H65.0764L60.8904 19.4631V26.226H58.9092V15.7985H60.8457L65.0465 22.5614V15.7985H67.0277Z" fill="black"/>
<path d="M78.419 20.5943V23.9161C77.5551 25.4059 76.0206 26.225 74.0989 26.225C71.1048 26.225 69.0342 24.0203 69.0342 21.0262C69.0342 18.0322 71.0997 15.7975 74.0937 15.7975C76.0154 15.7975 77.5551 16.6614 78.419 18.1512L76.6166 19.045C76.11 18.2107 75.2461 17.6893 74.0992 17.6893C72.1926 17.6893 71.0605 19.1193 71.0605 21.0262C71.0605 22.918 72.1926 24.348 74.0992 24.348C75.112 24.348 75.9016 23.9903 76.423 23.35V22.1879H74.1288V20.5939H78.419V20.5943Z" fill="black"/>
<path d="M86.9842 24.3342V26.226H80.7275V15.7985H82.7088V24.3342H86.9842Z" fill="black"/>
<path d="M90.9021 15.7985V26.226H88.9209V15.7985H90.9021Z" fill="black"/>
<path d="M100.749 23.2014C100.749 24.9296 99.5427 26.2254 96.9507 26.2254C94.9099 26.2254 93.0628 25.3168 92.7646 23.8122L94.5822 23.112C94.7758 23.9016 95.6844 24.3931 96.7718 24.3931C97.9786 24.3931 98.6337 23.9164 98.6337 23.2757C98.6337 22.6502 98.1271 22.3819 96.4289 21.8753C94.0305 21.1604 93.0473 20.2518 93.0473 18.7172C93.0473 17.3468 94.0453 15.7975 96.7268 15.7975C98.3208 15.7975 99.9443 16.5572 100.243 18.047L98.4848 18.7025C98.3507 18.047 97.5016 17.6897 96.7419 17.6745C95.9076 17.6597 95.1479 17.9576 95.1479 18.643C95.1479 19.1344 95.5351 19.4474 97.1738 19.9539C99.2297 20.5795 100.749 21.2645 100.749 23.2014Z" fill="black"/>
<path d="M110.849 15.7985V26.226H108.868V21.9657H104.667V26.226H102.686V15.7985H104.667V20.0739H108.868V15.7985H110.849Z" fill="black"/>
<path d="M59.9781 0V10.4276H57.9968V3.85828L55.4495 7.96966H54.2727L51.7254 3.85828V10.4276H49.7441V0H51.5913L54.8535 5.27345L58.1457 0H59.9781Z" fill="black"/>
<path d="M67.158 6.46508V10.4276H65.1767V6.46508L61.542 0H63.821L66.16 4.33493L68.5136 0H70.7779L67.158 6.46508Z" fill="black"/>
<path d="M33.2469 10.6456C33.2469 16.5157 28.4716 21.2918 22.6014 21.2918C16.7312 21.2918 11.9551 16.5157 11.9551 10.6456C11.9551 4.77537 16.7312 0 22.6014 0C28.4716 0 33.2469 4.77537 33.2469 10.6456Z" fill="#EDE100"/>
<path d="M21.2918 31.3522C21.2918 37.2224 16.5157 41.9985 10.6456 41.9985C4.77537 41.9985 0 37.2224 0 31.3522C0 25.482 4.77537 20.7067 10.6456 20.7067C16.5157 20.7067 21.2918 25.482 21.2918 31.3522Z" fill="#C34AE5"/>
<path d="M45.2022 31.3527C45.2022 37.2229 40.4269 41.999 34.5567 41.999C28.6865 41.999 23.9111 37.2229 23.9111 31.3527C23.9111 25.4825 28.6865 20.7072 34.5567 20.7072C40.4269 20.7072 45.2022 25.4825 45.2022 31.3527Z" fill="#13A5FA"/>
</svg>
